<svg xmlns="http://www.w3.org/2000/svg" version="1.1" xmlns:xlink="http://www.w3.org/1999/xlink" width="1000" height="1000"><g clip-path="url(#SvgjsClipPath1361)"><rect width="1000" height="1000" fill="#ffffff"></rect><g transform="matrix(31.25,0,0,31.25,0,0)"><svg xmlns="http://www.w3.org/2000/svg" version="1.1" xmlns:xlink="http://www.w3.org/1999/xlink" width="32" height="32"><svg width="32" height="32" viewBox="0 0 32 32" fill="none" xmlns="http://www.w3.org/2000/svg">
<rect width="32" height="32" fill="black"></rect>
<path d="M17.013 25C20.2369 25 22.2034 23.8865 24 22.1021V21.7534L22.3523 20.1096H21.9888C20.5348 21.4164 19.1523 22.19 17.1024 22.1958C13.7147 22.2076 11.2626 19.4122 11.2626 16.0044V15.9546C11.2626 12.5468 13.7207 9.81296 17.0756 9.81882C18.8574 9.82175 20.2279 10.3961 21.8488 11.7938H22.2123L23.8778 9.90965V9.55217C22.1736 8.02263 20.2637 7 17.1263 7C11.781 6.99707 8 11.0524 8 16.0015V16.0513C8 21.0501 11.787 25 17.013 25Z" fill="white"></path>
</svg></svg></g></g><defs><clipPath id="SvgjsClipPath1361"><rect width="1000" height="1000" x="0" y="0" rx="200" ry="200"></rect></clipPath></defs></svg>